<svg width="1439" height="229" viewBox="0 0 1439 229" fill="none" xmlns="http://www.w3.org/2000/svg">
<path d="M103.696 228.726C132.408 228.726 156.976 217.774 175.624 196.166L147.8 163.014C137.44 174.262 123.232 183.142 105.768 183.142C74.688 183.142 54.56 157.686 54.56 113.878C54.56 70.9576 77.944 45.5016 106.36 45.5016C122.048 45.5016 133.592 52.6056 144.544 62.6696L172.368 28.9256C157.272 13.5336 134.184 0.213623 105.472 0.213623C49.528 0.213623 0.392 42.2456 0.392 115.654C0.392 190.246 47.752 228.726 103.696 228.726Z" fill="#F8F8FA"/>
<path d="M256.726 133.118L261.462 114.47C267.086 92.5656 273.006 66.8136 278.334 43.7256H279.518C285.438 66.2216 291.062 92.5656 296.982 114.47L301.718 133.118H256.726ZM324.51 224.582H380.158L311.782 4.35762H248.438L180.062 224.582H233.934L246.662 173.966H311.782L324.51 224.582Z" fill="#F8F8FA"/>
<path d="M403.292 224.582H541.82V180.182H456.276V4.35762H403.292V224.582Z" fill="#F8F8FA"/>
<path d="M579.909 224.582H718.437V180.182H632.893V4.35762H579.909V224.582Z" fill="#F8F8FA"/>
<path d="M756.526 224.582H809.51V4.35762H756.526V224.582Z" fill="#F8F8FA"/>
<path d="M950.883 228.726C1010.97 228.726 1051.82 185.51 1051.82 113.286C1051.82 41.3576 1010.97 0.213623 950.883 0.213623C890.795 0.213623 849.947 41.0616 849.947 113.286C849.947 185.51 890.795 228.726 950.883 228.726ZM950.883 183.142C921.875 183.142 904.115 156.206 904.115 113.286C904.115 70.6616 921.875 45.5016 950.883 45.5016C979.891 45.5016 997.947 70.6616 997.947 113.286C997.947 156.206 979.891 183.142 950.883 183.142Z" fill="#F8F8FA"/>
<path d="M1092.71 224.582H1145.69V151.47H1171.44C1217.91 151.47 1258.47 128.382 1258.47 75.9896C1258.47 21.5256 1218.51 4.35762 1169.96 4.35762H1092.71V224.582ZM1145.69 109.734V46.0936H1167.3C1192.75 46.0936 1206.96 53.7896 1206.96 75.9896C1206.96 97.5976 1194.53 109.734 1168.78 109.734H1145.69Z" fill="#F8F8FA"/>
<path d="M1295.92 224.582H1438.88V180.182H1348.9V133.414H1422.61V89.0136H1348.9V48.1656H1435.63V4.35762H1295.92V224.582Z" fill="#F8F8FA"/>
</svg>
