<svg width="44" height="33" viewBox="0 0 44 33" fill="none" xmlns="http://www.w3.org/2000/svg">
<path fill-rule="evenodd" clip-rule="evenodd" d="M11.9656 2.20166C11.9656 2.20166 11.7773 8.64588 17.6839 13.1321V25.8742C17.6839 25.8742 13.8801 24.832 11.965 23.1584L11.9656 2.20166Z" fill="black"/>
<path fill-rule="evenodd" clip-rule="evenodd" d="M19.1652 14.2654C19.1652 14.2654 21.0171 15.6172 24.8837 16.4403V26.3021C24.8837 26.3021 21.7698 26.8521 19.1648 26.3359L19.1652 14.2654Z" fill="black"/>
<path fill-rule="evenodd" clip-rule="evenodd" d="M26.2627 16.5759C26.2627 16.5759 28.5545 16.9261 31.9812 16.0864V23.0933C31.9812 23.0933 29.6064 24.9954 26.2623 25.8741L26.2627 16.5759Z" fill="black"/>
<path fill-rule="evenodd" clip-rule="evenodd" d="M14.6192 2.92469C14.7033 3.16307 14.7925 3.39923 14.887 3.63286C15.0767 4.09973 15.2797 4.55957 15.5036 5.00762C15.9464 5.90594 16.4568 6.76441 17.0299 7.57046C17.6083 8.37208 18.2408 9.12959 18.9473 9.80431C19.6513 10.4808 20.4171 11.0845 21.2337 11.6022C22.8697 12.636 24.7076 13.3055 26.6079 13.6444C28.5112 13.9829 30.4676 14.0074 32.4211 13.8677C31.4609 14.0732 30.4827 14.1938 29.4986 14.2458C28.5144 14.2889 27.5221 14.2659 26.5383 14.1326C24.5704 13.8856 22.6292 13.2242 20.9185 12.1427C20.0663 11.5989 19.2689 10.9613 18.5526 10.2378C17.8407 9.51051 17.1941 8.71506 16.6441 7.85414C16.3686 7.42435 16.1072 6.98515 15.875 6.5299C15.6423 6.07505 15.4278 5.61095 15.2347 5.13815C15.0467 4.66298 14.8737 4.18212 14.7296 3.69216C14.5866 3.20221 14.4609 2.70616 14.3845 2.20166C14.4549 2.44597 14.5339 2.68656 14.6192 2.92469Z" fill="black"/>
<mask id="mask0_156:1307" style="mask-type:alpha" maskUnits="userSpaceOnUse" x="12" y="0" width="4" height="3">
<path d="M12.8881 0H15.6877V2.81682H12.8881V0Z" fill="white"/>
</mask>
<g mask="url(#mask0_156:1307)">
<path fill-rule="evenodd" clip-rule="evenodd" d="M13.5965 -0.000244141L12.8881 2.81663L15.6877 1.99648L13.5965 -0.000244141Z" fill="black"/>
</g>
<mask id="mask1_156:1307" style="mask-type:alpha" maskUnits="userSpaceOnUse" x="0" y="28" width="44" height="5">
<path d="M0 28.6797H44V32.9253H0V28.6797Z" fill="white"/>
</mask>
<g mask="url(#mask1_156:1307)">
<path fill-rule="evenodd" clip-rule="evenodd" d="M0 32.9253C0 32.9253 21.8018 23.3727 44 32.9253C44 32.9253 20.3031 28.648 0 32.9253Z" fill="black"/>
</g>
</svg>
