<svg width="70" height="70" viewBox="0 0 70 70" fill="none" xmlns="http://www.w3.org/2000/svg">
<path d="M35 69.6336C54.33 69.6336 70 54.0456 70 34.8168C70 15.588 54.33 0 35 0C15.67 0 0 15.588 0 34.8168C0 54.0456 15.67 69.6336 35 69.6336Z" fill="#F6F1ED"/>
<path d="M57.9802 33.4809C57.9968 33.6871 57.9813 33.8991 57.9251 34.1104L53.8754 51.9096C53.8186 52.1227 53.7248 52.3163 53.606 52.4884C53.1723 53.3508 52.5127 54.1135 51.6359 54.6687C50.7121 55.2534 49.6804 55.5264 48.6614 55.5245V55.5133L22.6482 55.5025C22.5573 55.5159 22.4652 55.5251 22.3704 55.5251C22.2754 55.5251 22.1829 55.5159 22.0914 55.5021L15.1722 55.4993C15.0749 55.5148 14.9759 55.5251 14.8742 55.5251C13.8389 55.5251 13 54.6896 13 53.6591L13.017 31.2555C13.017 30.2247 13.8563 29.3893 14.8915 29.3893C14.9688 29.3893 15.0447 29.3953 15.1197 29.4047L21.3394 29.3903V29.3551C27.0621 28.9472 31.5967 24.2758 31.7585 18.5126C31.7441 18.3504 31.7338 18.1875 31.7338 18.0216C31.7338 15.0233 34.1746 12.5925 37.1861 12.5925C39.7738 12.5925 41.9355 14.3893 42.4939 16.7968L42.5214 16.7932C42.8284 18.1676 42.9957 19.5944 42.9957 21.0606C42.9957 23.3214 42.6081 25.4913 41.8989 27.5105L52.3598 27.5218C52.456 27.5218 52.5501 27.5314 52.6427 27.5455C54.4288 27.6153 56.1491 28.5312 57.1624 30.1575C57.807 31.1917 58.0641 32.3538 57.9802 33.4809ZM16.75 51.7678L20.498 51.7694L20.5121 33.1244L16.7677 33.1327L16.75 51.7678ZM53.999 32.1074C53.6387 31.529 53.0024 31.2249 52.3646 31.2592V31.2537C52.3631 31.2537 52.3614 31.2537 52.3599 31.2537L39.1371 31.2399C38.1022 31.2399 37.263 30.4042 37.263 29.3735C37.263 29.0768 37.3346 28.7971 37.4584 28.548L37.4385 28.5317C38.1872 27.1438 38.7318 25.6309 39.0406 24.0349L39.0641 24.0355C39.0641 24.0355 39.3133 23.0278 39.3101 21.0951C39.3074 19.564 39.0273 18.1662 39.0273 18.1662H39.0131C39.0144 18.139 39.0173 18.1125 39.0173 18.085C39.0173 17.1214 38.2326 16.3401 37.2649 16.3401C36.2967 16.3401 35.512 17.1214 35.512 18.085C35.512 18.1253 35.5156 18.165 35.5181 18.2046L35.4937 18.205C35.4937 18.205 35.5235 19.6619 35.2314 21.1729C35.1074 21.8139 34.9331 22.4117 34.7744 22.8852C34.7712 22.8836 34.7684 22.8824 34.7652 22.8808C33.1877 27.6828 29.2213 31.4052 24.2642 32.6591L24.2462 51.7708L48.6702 51.7807C48.7528 51.7807 48.8334 51.7877 48.9129 51.7985C49.1566 51.7662 49.3975 51.6824 49.6187 51.5423C49.9327 51.3437 50.1606 51.0619 50.2942 50.7439L50.299 50.7466L54.1982 33.6097L54.1831 33.6052C54.339 33.1206 54.2895 32.5738 53.999 32.1074Z" fill="black"/>
</svg>
