<svg width="70" height="71" viewBox="0 0 70 71" fill="none" xmlns="http://www.w3.org/2000/svg">
<path d="M35 70.3726C54.33 70.3726 70 54.7846 70 35.5558C70 16.327 54.33 0.739014 35 0.739014C15.67 0.739014 0 16.327 0 35.5558C0 54.7846 15.67 70.3726 35 70.3726Z" fill="#F6F1ED"/>
<path d="M38.5625 57.7548H32.4375C29.0596 57.7548 26.3125 55.0221 26.3125 51.6618V49.0114C26.3125 46.8926 25.0492 43.6648 23.6099 42.1035C23.472 41.9512 20.1875 38.3289 20.1875 33.0448C20.1875 24.6457 27.0567 17.8124 35.5 17.8124C43.9433 17.8124 50.8125 24.6457 50.8125 33.0448C50.8125 38.3304 47.528 41.9527 47.3902 42.1035C45.9493 43.6633 44.6875 46.8926 44.6875 49.0114V51.6618C44.6875 55.0221 41.9405 57.7548 38.5625 57.7548ZM35.5 20.8589C28.7457 20.8589 23.25 26.3258 23.25 33.0448C23.25 37.1575 25.8409 40.0167 25.8685 40.0456C27.8346 42.1781 29.375 46.1172 29.375 49.0129V51.6633C29.375 53.3435 30.7485 54.7098 32.4375 54.7098H38.5625C40.2515 54.7098 41.625 53.3435 41.625 51.6633V49.0129C41.625 46.1172 43.1655 42.1797 45.1316 40.0456C45.1546 40.0197 47.75 37.1134 47.75 33.0448C47.75 26.3258 42.2544 20.8589 35.5 20.8589ZM41.625 38.105C40.9834 38.105 40.3862 37.7013 40.1734 37.0631L39.4246 34.8316L36.5841 37.6587C35.9854 38.2543 35.0177 38.2543 34.419 37.6587L31.577 34.8316L30.8297 37.0631C30.5617 37.8598 29.6966 38.2954 28.8927 38.0258C28.0903 37.7607 27.657 36.8986 27.9249 36.0989L29.4562 31.5292C29.6244 31.0286 30.0408 30.6501 30.5571 30.5284C31.0716 30.4066 31.6168 30.5604 31.9919 30.9336L35.5 34.4279L39.0112 30.9351C39.3848 30.5619 39.9284 30.4096 40.446 30.5299C40.9625 30.6512 41.3791 31.0298 41.5469 31.5307L43.0782 36.1004C43.3461 36.8986 42.9128 37.7623 42.1104 38.0273C41.9481 38.0791 41.7843 38.105 41.625 38.105ZM52.3285 22.8879C51.9104 22.8879 51.4939 22.7188 51.1923 22.3852C50.6257 21.7607 50.6747 20.798 51.3025 20.2329L52.8583 18.8376C53.4846 18.274 54.4523 18.3227 55.0204 18.9488C55.587 19.5733 55.538 20.536 54.9102 21.1011L53.3544 22.4949C53.0619 22.7584 52.6944 22.8879 52.3285 22.8879ZM18.6731 22.8879C18.2946 22.8883 17.9295 22.7488 17.6487 22.4964L16.0929 21.0996C15.4651 20.536 15.4161 19.5733 15.9812 18.9472C16.5462 18.3212 17.5139 18.2724 18.1448 18.836L19.7006 20.2313C20.3284 20.7949 20.3774 21.7576 19.8124 22.3837C19.5217 22.7049 19.1076 22.8882 18.6731 22.8879ZM35.5 16.7797C34.6548 16.7797 33.9688 16.0973 33.9688 15.2564V13.7332C33.9688 12.8924 34.6548 12.21 35.5 12.21C36.3453 12.21 37.0313 12.8924 37.0313 13.7332V15.2564C37.0313 16.0973 36.3453 16.7797 35.5 16.7797ZM38.5625 51.8141H32.4375C31.5923 51.8141 30.9063 51.1332 30.9063 50.2909C30.9063 49.4485 31.5923 48.7677 32.4375 48.7677H38.5625C39.4093 48.7677 40.0938 49.4485 40.0938 50.2909C40.0938 51.1332 39.4093 51.8141 38.5625 51.8141Z" fill="black"/>
</svg>
