<svg width="82" height="82" viewBox="0 0 82 82" fill="none" xmlns="http://www.w3.org/2000/svg">
<path d="M61.1756 41.1655L49.099 65.3256L49.8392 74.5499L57.6686 69.5581L69.7375 45.4057L61.1756 41.1655ZM65.4304 32.6407L62.5896 38.3243L71.1579 42.5645L74 36.8809L65.4304 32.6407ZM14.1786 69.9529C13.5437 69.9536 12.9347 69.7031 12.4858 69.2565C12.0369 68.81 11.785 68.2041 11.7857 67.5726V15.2052C11.7857 13.8887 12.8552 12.8249 14.1786 12.8249H54.7895C56.1129 12.8249 57.1824 13.8887 57.1824 15.2052V34.2479C57.1824 35.5644 58.2518 36.6282 59.5752 36.6282C60.2101 36.6289 60.8191 36.3783 61.268 35.9318C61.7169 35.4853 61.9688 34.8794 61.9681 34.2479V12.8249C61.966 10.1965 59.8246 8.06631 57.1824 8.06421H11.7857C9.14264 8.06421 7 10.1956 7 12.8249V69.9529C7.00211 72.5813 9.14351 74.7115 11.7857 74.7136H42.9375C43.5724 74.7143 44.1814 74.4637 44.6303 74.0172C45.0792 73.5706 45.3311 72.9648 45.3304 72.3333C45.3311 71.7018 45.0792 71.0959 44.6303 70.6494C44.1814 70.2028 43.5724 69.9523 42.9375 69.9529H14.1786ZM48.808 22.2713H20.0861C19.4512 22.2707 18.8422 22.5212 18.3933 22.9678C17.9444 23.4143 17.6925 24.0201 17.6932 24.6517C17.6932 25.9694 18.7626 27.032 20.0861 27.032H48.808C49.4428 27.0327 50.0519 26.7821 50.5008 26.3356C50.9496 25.889 51.2015 25.2832 51.2009 24.6517C51.2026 24.0198 50.951 23.4134 50.5019 22.9666C50.0528 22.5199 49.4431 22.2696 48.808 22.2713ZM48.808 36.5533H20.0861C19.4512 36.5527 18.8422 36.8032 18.3933 37.2498C17.9444 37.6963 17.6925 38.3022 17.6932 38.9337C17.6932 40.2514 18.7626 41.314 20.0861 41.314H48.808C49.4428 41.3147 50.0519 41.0641 50.5008 40.6176C50.9496 40.171 51.2015 39.5652 51.2009 38.9337C51.2026 38.3019 50.951 37.6954 50.5019 37.2487C50.0528 36.8019 49.4431 36.5516 48.808 36.5533ZM34.4509 50.8354H20.0861C19.4512 50.8347 18.8422 51.0853 18.3933 51.5318C17.9444 51.9783 17.6925 52.5842 17.6932 53.2157C17.6932 54.5334 18.7626 55.596 20.0861 55.596H34.4509C35.0857 55.5967 35.6947 55.3461 36.1436 54.8996C36.5925 54.453 36.8444 53.8472 36.8437 53.2157C36.8444 52.5842 36.5925 51.9783 36.1436 51.5318C35.6947 51.0853 35.0857 50.8347 34.4509 50.8354Z" fill="black"/>
</svg>
