<svg width="70" height="71" viewBox="0 0 70 71" fill="none" xmlns="http://www.w3.org/2000/svg">
<path d="M35 70.3726C54.33 70.3726 70 54.7846 70 35.5558C70 16.327 54.33 0.739014 35 0.739014C15.67 0.739014 0 16.327 0 35.5558C0 54.7846 15.67 70.3726 35 70.3726Z" fill="#F6F1ED"/>
<path d="M28.6224 31.1652C26.6054 31.1652 24.9618 29.3302 24.9618 27.0726C24.9618 24.815 26.6054 22.98 28.6224 22.98C30.6394 22.98 32.283 24.815 32.283 27.0726C32.283 29.3302 30.6394 31.1652 28.6224 31.1652ZM28.6224 25.5849C27.8913 25.5849 27.295 26.2506 27.295 27.0726C27.295 27.8946 27.8913 28.5603 28.6224 28.5603C29.3535 28.5603 29.9498 27.8946 29.9498 27.0726C29.9498 26.2506 29.3535 25.5849 28.6224 25.5849ZM53.3705 31.1247C51.3691 31.1247 49.741 29.3071 49.741 27.0726C49.741 24.8382 51.3691 23.0205 53.3705 23.0205C55.3719 23.0205 57 24.8382 57 27.0726C57 29.3071 55.3719 31.1247 53.3705 31.1247ZM53.3705 25.6254C52.655 25.6254 52.0742 26.2738 52.0742 27.0726C52.0742 27.8715 52.655 28.5198 53.3705 28.5198C54.086 28.5198 54.6667 27.8715 54.6667 27.0726C54.6667 26.2738 54.086 25.6254 53.3705 25.6254ZM53.3705 41.666C51.3691 41.666 49.741 39.8483 49.741 37.6139C49.741 35.3794 51.3691 33.5618 53.3705 33.5618C55.3719 33.5618 57 35.3794 57 37.6139C57 39.8483 55.3719 41.666 53.3705 41.666ZM53.3705 36.1667C52.655 36.1667 52.0742 36.815 52.0742 37.6139C52.0742 38.4127 52.655 39.0611 53.3705 39.0611C54.086 39.0611 54.6667 38.4127 54.6667 37.6139C54.6667 36.815 54.086 36.1667 53.3705 36.1667ZM53.3705 21.6486C51.3691 21.6486 49.741 19.8309 49.741 17.5965C49.741 15.362 51.3691 13.5444 53.3705 13.5444C55.3719 13.5444 57 15.362 57 17.5965C57 19.8309 55.3719 21.6486 53.3705 21.6486ZM53.3705 16.1493C52.655 16.1493 52.0742 16.7976 52.0742 17.5965C52.0742 18.3953 52.655 19.0437 53.3705 19.0437C54.086 19.0437 54.6667 18.3953 54.6667 17.5965C54.6667 16.7976 54.086 16.1493 53.3705 16.1493ZM40.5428 54.598H26.1077L25.5995 49.5502C25.444 47.9873 24.6248 47.7152 22.6648 47.4258C21.8871 47.31 21.0834 47.1942 20.4145 46.8353C19.4501 46.3143 18.9368 45.3939 18.9368 44.1667C18.9368 43.2174 18.9472 42.3201 18.9575 41.3708C18.9679 40.4156 18.9783 39.4373 18.9835 38.268C18.7812 38.2101 18.5427 38.158 18.3561 38.1117C17.0961 37.8165 15.6702 37.4807 15.1621 36.2535C15.0169 35.9062 14.8406 35.1884 15.271 34.3027L15.3902 34.0538C17.3709 29.9786 19.082 26.459 19.082 23.281C19.082 21.4807 19.4657 19.3331 20.1294 17.3881C20.9849 14.8931 22.3019 12.7282 23.93 11.1363C25.2884 9.81065 26.8699 8.85551 28.638 8.29401C30.6031 7.67461 32.8119 7.53568 35.2074 7.89458C39.7132 8.56608 43.0575 11.1015 45.1419 15.4257C46.7751 18.8237 47.6048 23.2926 47.6048 28.7224C47.6048 32.2072 47.0811 35.1768 46.0078 37.7991C45.0745 40.0741 43.8871 41.7065 42.8449 43.1421C41.5072 44.9829 40.5376 46.3143 40.5376 48.2709V54.598H40.5428ZM28.1972 51.9931H38.2095V48.2825C38.2095 45.4055 39.5835 43.5126 41.0353 41.5155C43.0212 38.7832 45.2767 35.6804 45.2767 28.7398C45.2767 23.7499 44.5404 19.692 43.0886 16.6761C41.3568 13.0755 38.6762 11.0552 34.9015 10.4937C31.0127 9.91485 27.8395 10.7947 25.4699 13.1102C22.2656 16.2419 21.4204 21.1392 21.4204 23.2926C21.4204 27.0958 19.6109 30.8526 17.5006 35.1942C17.8842 35.3505 18.5013 35.4952 18.8383 35.5705C19.2894 35.6747 19.7146 35.7789 20.0671 35.912C21.156 36.3346 21.3167 37.1218 21.3167 37.556C21.3167 39.0726 21.3012 40.3114 21.2908 41.4113C21.2804 42.3548 21.2701 43.2405 21.2701 44.1725C21.2701 44.4098 21.296 44.4214 21.4308 44.4967C21.7574 44.6761 22.3745 44.7629 22.9656 44.8498C23.8989 44.9829 24.9566 45.1392 25.8847 45.7007C27.0721 46.4127 27.7565 47.6168 27.9224 49.2666L28.1972 51.9931ZM40.9524 46.0828C37.5821 46.0828 34.5333 44.3577 32.1275 41.0987C30.0483 38.2796 28.5291 34.3548 27.8498 30.048L30.1468 29.5965C30.7586 33.4691 32.0964 36.9655 33.9267 39.4431C35.2852 41.2839 37.6029 43.4778 40.9472 43.4778V46.0828H40.9524ZM29.7994 24.3172L27.4662 24.2477C27.5491 20.8034 28.1972 17.5617 29.3483 14.8816C30.6497 11.8425 32.5267 9.59647 34.917 8.20139L35.9955 10.5111C32.2675 12.6819 29.9498 17.8396 29.7994 24.3172ZM50.5187 38.9163H38.1473V16.294H50.5187V18.8989H40.4805V36.3114H50.5187V38.9163ZM31.1164 25.7702H50.5187V28.3751H31.1164V25.7702Z" fill="black"/>
</svg>
