<svg width="60" height="70" viewBox="0 0 60 70" fill="none" xmlns="http://www.w3.org/2000/svg">
<path d="M30.0471 30.05C21.7372 30.05 14.9764 23.3265 14.9764 15.0624C14.9764 6.79818 21.7372 0.074707 30.0471 0.074707C38.3572 0.074707 45.1178 6.79818 45.1178 15.0624C45.1178 23.3265 38.3572 30.05 30.0471 30.05ZM30.0471 6.06977C25.0611 6.06977 21.0048 10.1038 21.0048 15.0624C21.0048 20.0209 25.0611 24.055 30.0471 24.055C35.0331 24.055 39.0895 20.0209 39.0895 15.0624C39.0895 10.1038 35.0331 6.06977 30.0471 6.06977ZM24.6688 69.7083C15.5705 69.7083 7.24975 69.3522 2.88586 65.0289C0.970954 63.1317 0 60.6754 0 57.7282C0 54.7654 0.965164 51.8444 2.86877 49.046C4.56215 46.5568 6.91031 44.293 9.84814 42.3172C15.6599 38.409 23.0221 36.1675 30.0471 36.1675C37.0691 36.1675 44.416 38.4102 50.2042 42.3209C53.1289 44.2968 55.4659 46.5618 57.1505 49.0529C59.0413 51.8489 60 54.7677 60 57.7282C60 60.6838 59.0282 63.145 57.1117 65.0437C52.3349 69.7761 42.8114 69.7394 32.7274 69.7015C30.9405 69.6946 29.1535 69.6945 27.3666 69.7013C26.4619 69.7048 25.5616 69.7083 24.6688 69.7083ZM30.0471 63.6995C30.9482 63.6995 31.8508 63.7029 32.7505 63.7063C37.4148 63.7242 41.8196 63.7409 45.5425 63.2945C49.1611 62.8605 51.6222 62.0201 52.8573 60.7964C53.3357 60.3224 53.9717 59.4888 53.9717 57.7282C53.9717 54.1603 51.3638 50.352 46.8167 47.2799C42.0031 44.0277 35.8908 42.1625 30.0471 42.1625C18.1499 42.1625 6.02832 50.0181 6.02832 57.7282C6.02832 59.4776 6.66292 60.3085 7.14038 60.7815C10.1587 63.7717 19.2887 63.7369 27.3436 63.7064C28.2437 63.7029 29.1464 63.6995 30.0471 63.6995Z" fill="black"/>
</svg>
