<svg width="130" height="130" viewBox="0 0 130 130" fill="none" xmlns="http://www.w3.org/2000/svg">
<path opacity="0.793434" d="M2.66082 124.678C4.13035 124.678 5.32164 125.87 5.32164 127.339C5.32164 128.809 4.13035 130 2.66082 130C1.19129 130 0 128.809 0 127.339C0 125.87 1.19129 124.678 2.66082 124.678ZM20.1462 124.678C21.6157 124.678 22.807 125.87 22.807 127.339C22.807 128.809 21.6157 130 20.1462 130C18.6767 130 17.4854 128.809 17.4854 127.339C17.4854 125.87 18.6767 124.678 20.1462 124.678ZM39.152 124.678C40.6216 124.678 41.8129 125.87 41.8129 127.339C41.8129 128.809 40.6216 130 39.152 130C37.6825 130 36.4912 128.809 36.4912 127.339C36.4912 125.87 37.6825 124.678 39.152 124.678ZM55.8772 124.678C57.3467 124.678 58.538 125.87 58.538 127.339C58.538 128.809 57.3467 130 55.8772 130C54.4077 130 53.2164 128.809 53.2164 127.339C53.2164 125.87 54.4077 124.678 55.8772 124.678ZM74.1228 124.678C75.5923 124.678 76.7836 125.87 76.7836 127.339C76.7836 128.809 75.5923 130 74.1228 130C72.6533 130 71.462 128.809 71.462 127.339C71.462 125.87 72.6533 124.678 74.1228 124.678ZM90.848 124.678C92.3175 124.678 93.5088 125.87 93.5088 127.339C93.5088 128.809 92.3175 130 90.848 130C89.3784 130 88.1871 128.809 88.1871 127.339C88.1871 125.87 89.3784 124.678 90.848 124.678ZM109.854 124.678C111.323 124.678 112.515 125.87 112.515 127.339C112.515 128.809 111.323 130 109.854 130C108.384 130 107.193 128.809 107.193 127.339C107.193 125.87 108.384 124.678 109.854 124.678ZM127.339 124.678C128.809 124.678 130 125.87 130 127.339C130 128.809 128.809 130 127.339 130C125.87 130 124.678 128.809 124.678 127.339C124.678 125.87 125.87 124.678 127.339 124.678ZM2.66082 107.193C4.13035 107.193 5.32164 108.384 5.32164 109.854C5.32164 111.323 4.13035 112.515 2.66082 112.515C1.19129 112.515 0 111.323 0 109.854C0 108.384 1.19129 107.193 2.66082 107.193ZM20.1462 107.193C21.6157 107.193 22.807 108.384 22.807 109.854C22.807 111.323 21.6157 112.515 20.1462 112.515C18.6767 112.515 17.4854 111.323 17.4854 109.854C17.4854 108.384 18.6767 107.193 20.1462 107.193ZM39.152 107.193C40.6216 107.193 41.8129 108.384 41.8129 109.854C41.8129 111.323 40.6216 112.515 39.152 112.515C37.6825 112.515 36.4912 111.323 36.4912 109.854C36.4912 108.384 37.6825 107.193 39.152 107.193ZM55.8772 107.193C57.3467 107.193 58.538 108.384 58.538 109.854C58.538 111.323 57.3467 112.515 55.8772 112.515C54.4077 112.515 53.2164 111.323 53.2164 109.854C53.2164 108.384 54.4077 107.193 55.8772 107.193ZM74.1228 107.193C75.5923 107.193 76.7836 108.384 76.7836 109.854C76.7836 111.323 75.5923 112.515 74.1228 112.515C72.6533 112.515 71.462 111.323 71.462 109.854C71.462 108.384 72.6533 107.193 74.1228 107.193ZM90.848 107.193C92.3175 107.193 93.5088 108.384 93.5088 109.854C93.5088 111.323 92.3175 112.515 90.848 112.515C89.3784 112.515 88.1871 111.323 88.1871 109.854C88.1871 108.384 89.3784 107.193 90.848 107.193ZM109.854 107.193C111.323 107.193 112.515 108.384 112.515 109.854C112.515 111.323 111.323 112.515 109.854 112.515C108.384 112.515 107.193 111.323 107.193 109.854C107.193 108.384 108.384 107.193 109.854 107.193ZM127.339 107.193C128.809 107.193 130 108.384 130 109.854C130 111.323 128.809 112.515 127.339 112.515C125.87 112.515 124.678 111.323 124.678 109.854C124.678 108.384 125.87 107.193 127.339 107.193ZM2.66082 88.1871C4.13035 88.1871 5.32164 89.3784 5.32164 90.848C5.32164 92.3175 4.13035 93.5088 2.66082 93.5088C1.19129 93.5088 0 92.3175 0 90.848C0 89.3784 1.19129 88.1871 2.66082 88.1871ZM20.1462 88.1871C21.6157 88.1871 22.807 89.3784 22.807 90.848C22.807 92.3175 21.6157 93.5088 20.1462 93.5088C18.6767 93.5088 17.4854 92.3175 17.4854 90.848C17.4854 89.3784 18.6767 88.1871 20.1462 88.1871ZM39.152 88.1871C40.6216 88.1871 41.8129 89.3784 41.8129 90.848C41.8129 92.3175 40.6216 93.5088 39.152 93.5088C37.6825 93.5088 36.4912 92.3175 36.4912 90.848C36.4912 89.3784 37.6825 88.1871 39.152 88.1871ZM55.8772 88.1871C57.3467 88.1871 58.538 89.3784 58.538 90.848C58.538 92.3175 57.3467 93.5088 55.8772 93.5088C54.4077 93.5088 53.2164 92.3175 53.2164 90.848C53.2164 89.3784 54.4077 88.1871 55.8772 88.1871ZM74.1228 88.1871C75.5923 88.1871 76.7836 89.3784 76.7836 90.848C76.7836 92.3175 75.5923 93.5088 74.1228 93.5088C72.6533 93.5088 71.462 92.3175 71.462 90.848C71.462 89.3784 72.6533 88.1871 74.1228 88.1871ZM90.848 88.1871C92.3175 88.1871 93.5088 89.3784 93.5088 90.848C93.5088 92.3175 92.3175 93.5088 90.848 93.5088C89.3784 93.5088 88.1871 92.3175 88.1871 90.848C88.1871 89.3784 89.3784 88.1871 90.848 88.1871ZM109.854 88.1871C111.323 88.1871 112.515 89.3784 112.515 90.848C112.515 92.3175 111.323 93.5088 109.854 93.5088C108.384 93.5088 107.193 92.3175 107.193 90.848C107.193 89.3784 108.384 88.1871 109.854 88.1871ZM127.339 88.1871C128.809 88.1871 130 89.3784 130 90.848C130 92.3175 128.809 93.5088 127.339 93.5088C125.87 93.5088 124.678 92.3175 124.678 90.848C124.678 89.3784 125.87 88.1871 127.339 88.1871ZM2.66082 71.462C4.13035 71.462 5.32164 72.6533 5.32164 74.1228C5.32164 75.5923 4.13035 76.7836 2.66082 76.7836C1.19129 76.7836 0 75.5923 0 74.1228C0 72.6533 1.19129 71.462 2.66082 71.462ZM20.1462 71.462C21.6157 71.462 22.807 72.6533 22.807 74.1228C22.807 75.5923 21.6157 76.7836 20.1462 76.7836C18.6767 76.7836 17.4854 75.5923 17.4854 74.1228C17.4854 72.6533 18.6767 71.462 20.1462 71.462ZM39.152 71.462C40.6216 71.462 41.8129 72.6533 41.8129 74.1228C41.8129 75.5923 40.6216 76.7836 39.152 76.7836C37.6825 76.7836 36.4912 75.5923 36.4912 74.1228C36.4912 72.6533 37.6825 71.462 39.152 71.462ZM55.8772 71.462C57.3467 71.462 58.538 72.6533 58.538 74.1228C58.538 75.5923 57.3467 76.7836 55.8772 76.7836C54.4077 76.7836 53.2164 75.5923 53.2164 74.1228C53.2164 72.6533 54.4077 71.462 55.8772 71.462ZM74.1228 71.462C75.5923 71.462 76.7836 72.6533 76.7836 74.1228C76.7836 75.5923 75.5923 76.7836 74.1228 76.7836C72.6533 76.7836 71.462 75.5923 71.462 74.1228C71.462 72.6533 72.6533 71.462 74.1228 71.462ZM90.848 71.462C92.3175 71.462 93.5088 72.6533 93.5088 74.1228C93.5088 75.5923 92.3175 76.7836 90.848 76.7836C89.3784 76.7836 88.1871 75.5923 88.1871 74.1228C88.1871 72.6533 89.3784 71.462 90.848 71.462ZM109.854 71.462C111.323 71.462 112.515 72.6533 112.515 74.1228C112.515 75.5923 111.323 76.7836 109.854 76.7836C108.384 76.7836 107.193 75.5923 107.193 74.1228C107.193 72.6533 108.384 71.462 109.854 71.462ZM127.339 71.462C128.809 71.462 130 72.6533 130 74.1228C130 75.5923 128.809 76.7836 127.339 76.7836C125.87 76.7836 124.678 75.5923 124.678 74.1228C124.678 72.6533 125.87 71.462 127.339 71.462ZM109.854 53.2164C111.323 53.2164 112.515 54.4077 112.515 55.8772C112.515 57.3467 111.323 58.538 109.854 58.538C108.384 58.538 107.193 57.3467 107.193 55.8772C107.193 54.4077 108.384 53.2164 109.854 53.2164ZM127.339 53.2164C128.809 53.2164 130 54.4077 130 55.8772C130 57.3467 128.809 58.538 127.339 58.538C125.87 58.538 124.678 57.3467 124.678 55.8772C124.678 54.4077 125.87 53.2164 127.339 53.2164ZM2.66082 53.2164C4.13035 53.2164 5.32164 54.4077 5.32164 55.8772C5.32164 57.3467 4.13035 58.538 2.66082 58.538C1.19129 58.538 0 57.3467 0 55.8772C0 54.4077 1.19129 53.2164 2.66082 53.2164ZM55.8772 53.2164C57.3467 53.2164 58.538 54.4077 58.538 55.8772C58.538 57.3467 57.3467 58.538 55.8772 58.538C54.4077 58.538 53.2164 57.3467 53.2164 55.8772C53.2164 54.4077 54.4077 53.2164 55.8772 53.2164ZM74.1228 53.2164C75.5923 53.2164 76.7836 54.4077 76.7836 55.8772C76.7836 57.3467 75.5923 58.538 74.1228 58.538C72.6533 58.538 71.462 57.3467 71.462 55.8772C71.462 54.4077 72.6533 53.2164 74.1228 53.2164ZM20.1462 53.2164C21.6157 53.2164 22.807 54.4077 22.807 55.8772C22.807 57.3467 21.6157 58.538 20.1462 58.538C18.6767 58.538 17.4854 57.3467 17.4854 55.8772C17.4854 54.4077 18.6767 53.2164 20.1462 53.2164ZM39.152 53.2164C40.6216 53.2164 41.8129 54.4077 41.8129 55.8772C41.8129 57.3467 40.6216 58.538 39.152 58.538C37.6825 58.538 36.4912 57.3467 36.4912 55.8772C36.4912 54.4077 37.6825 53.2164 39.152 53.2164ZM90.848 53.2164C92.3175 53.2164 93.5088 54.4077 93.5088 55.8772C93.5088 57.3467 92.3175 58.538 90.848 58.538C89.3784 58.538 88.1871 57.3467 88.1871 55.8772C88.1871 54.4077 89.3784 53.2164 90.848 53.2164ZM39.152 36.4912C40.6216 36.4912 41.8129 37.6825 41.8129 39.152C41.8129 40.6216 40.6216 41.8129 39.152 41.8129C37.6825 41.8129 36.4912 40.6216 36.4912 39.152C36.4912 37.6825 37.6825 36.4912 39.152 36.4912ZM20.1462 36.4912C21.6157 36.4912 22.807 37.6825 22.807 39.152C22.807 40.6216 21.6157 41.8129 20.1462 41.8129C18.6767 41.8129 17.4854 40.6216 17.4854 39.152C17.4854 37.6825 18.6767 36.4912 20.1462 36.4912ZM90.848 36.4912C92.3175 36.4912 93.5088 37.6825 93.5088 39.152C93.5088 40.6216 92.3175 41.8129 90.848 41.8129C89.3784 41.8129 88.1871 40.6216 88.1871 39.152C88.1871 37.6825 89.3784 36.4912 90.848 36.4912ZM109.854 36.4912C111.323 36.4912 112.515 37.6825 112.515 39.152C112.515 40.6216 111.323 41.8129 109.854 41.8129C108.384 41.8129 107.193 40.6216 107.193 39.152C107.193 37.6825 108.384 36.4912 109.854 36.4912ZM55.8772 36.4912C57.3467 36.4912 58.538 37.6825 58.538 39.152C58.538 40.6216 57.3467 41.8129 55.8772 41.8129C54.4077 41.8129 53.2164 40.6216 53.2164 39.152C53.2164 37.6825 54.4077 36.4912 55.8772 36.4912ZM74.1228 36.4912C75.5923 36.4912 76.7836 37.6825 76.7836 39.152C76.7836 40.6216 75.5923 41.8129 74.1228 41.8129C72.6533 41.8129 71.462 40.6216 71.462 39.152C71.462 37.6825 72.6533 36.4912 74.1228 36.4912ZM127.339 36.4912C128.809 36.4912 130 37.6825 130 39.152C130 40.6216 128.809 41.8129 127.339 41.8129C125.87 41.8129 124.678 40.6216 124.678 39.152C124.678 37.6825 125.87 36.4912 127.339 36.4912ZM2.66082 36.4912C4.13035 36.4912 5.32164 37.6825 5.32164 39.152C5.32164 40.6216 4.13035 41.8129 2.66082 41.8129C1.19129 41.8129 0 40.6216 0 39.152C0 37.6825 1.19129 36.4912 2.66082 36.4912ZM74.1228 17.4854C75.5923 17.4854 76.7836 18.6767 76.7836 20.1462C76.7836 21.6157 75.5923 22.807 74.1228 22.807C72.6533 22.807 71.462 21.6157 71.462 20.1462C71.462 18.6767 72.6533 17.4854 74.1228 17.4854ZM55.8772 17.4854C57.3467 17.4854 58.538 18.6767 58.538 20.1462C58.538 21.6157 57.3467 22.807 55.8772 22.807C54.4077 22.807 53.2164 21.6157 53.2164 20.1462C53.2164 18.6767 54.4077 17.4854 55.8772 17.4854ZM90.848 17.4854C92.3175 17.4854 93.5088 18.6767 93.5088 20.1462C93.5088 21.6157 92.3175 22.807 90.848 22.807C89.3784 22.807 88.1871 21.6157 88.1871 20.1462C88.1871 18.6767 89.3784 17.4854 90.848 17.4854ZM109.854 17.4854C111.323 17.4854 112.515 18.6767 112.515 20.1462C112.515 21.6157 111.323 22.807 109.854 22.807C108.384 22.807 107.193 21.6157 107.193 20.1462C107.193 18.6767 108.384 17.4854 109.854 17.4854ZM127.339 17.4854C128.809 17.4854 130 18.6767 130 20.1462C130 21.6157 128.809 22.807 127.339 22.807C125.87 22.807 124.678 21.6157 124.678 20.1462C124.678 18.6767 125.87 17.4854 127.339 17.4854ZM20.1462 17.4854C21.6157 17.4854 22.807 18.6767 22.807 20.1462C22.807 21.6157 21.6157 22.807 20.1462 22.807C18.6767 22.807 17.4854 21.6157 17.4854 20.1462C17.4854 18.6767 18.6767 17.4854 20.1462 17.4854ZM39.152 17.4854C40.6216 17.4854 41.8129 18.6767 41.8129 20.1462C41.8129 21.6157 40.6216 22.807 39.152 22.807C37.6825 22.807 36.4912 21.6157 36.4912 20.1462C36.4912 18.6767 37.6825 17.4854 39.152 17.4854ZM2.66082 17.4854C4.13035 17.4854 5.32164 18.6767 5.32164 20.1462C5.32164 21.6157 4.13035 22.807 2.66082 22.807C1.19129 22.807 0 21.6157 0 20.1462C0 18.6767 1.19129 17.4854 2.66082 17.4854ZM2.66082 0C4.13035 0 5.32164 1.19129 5.32164 2.66082C5.32164 4.13035 4.13035 5.32164 2.66082 5.32164C1.19129 5.32164 0 4.13035 0 2.66082C0 1.19129 1.19129 0 2.66082 0ZM20.1462 0C21.6157 0 22.807 1.19129 22.807 2.66082C22.807 4.13035 21.6157 5.32164 20.1462 5.32164C18.6767 5.32164 17.4854 4.13035 17.4854 2.66082C17.4854 1.19129 18.6767 0 20.1462 0ZM39.152 0C40.6216 0 41.8129 1.19129 41.8129 2.66082C41.8129 4.13035 40.6216 5.32164 39.152 5.32164C37.6825 5.32164 36.4912 4.13035 36.4912 2.66082C36.4912 1.19129 37.6825 0 39.152 0ZM55.8772 0C57.3467 0 58.538 1.19129 58.538 2.66082C58.538 4.13035 57.3467 5.32164 55.8772 5.32164C54.4077 5.32164 53.2164 4.13035 53.2164 2.66082C53.2164 1.19129 54.4077 0 55.8772 0ZM74.1228 0C75.5923 0 76.7836 1.19129 76.7836 2.66082C76.7836 4.13035 75.5923 5.32164 74.1228 5.32164C72.6533 5.32164 71.462 4.13035 71.462 2.66082C71.462 1.19129 72.6533 0 74.1228 0ZM90.848 0C92.3175 0 93.5088 1.19129 93.5088 2.66082C93.5088 4.13035 92.3175 5.32164 90.848 5.32164C89.3784 5.32164 88.1871 4.13035 88.1871 2.66082C88.1871 1.19129 89.3784 0 90.848 0ZM109.854 0C111.323 0 112.515 1.19129 112.515 2.66082C112.515 4.13035 111.323 5.32164 109.854 5.32164C108.384 5.32164 107.193 4.13035 107.193 2.66082C107.193 1.19129 108.384 0 109.854 0ZM127.339 0C128.809 0 130 1.19129 130 2.66082C130 4.13035 128.809 5.32164 127.339 5.32164C125.87 5.32164 124.678 4.13035 124.678 2.66082C124.678 1.19129 125.87 0 127.339 0Z" fill="#D9D9D9"/>
</svg>
