<svg width="154" height="33" viewBox="0 0 154 33" fill="none" xmlns="http://www.w3.org/2000/svg">
<path fill-rule="evenodd" clip-rule="evenodd" d="M106.49 12.5906C106.49 13.7435 105.553 14.6781 104.398 14.6781C103.242 14.6781 102.305 13.7435 102.305 12.5906C102.305 11.4377 103.242 10.5032 104.398 10.5032C105.553 10.5032 106.49 11.4377 106.49 12.5906Z" fill="#060101"/>
<path fill-rule="evenodd" clip-rule="evenodd" d="M70.2364 14.678L66.6565 16.4637C66.3537 15.6422 65.8535 14.9884 65.1562 14.5019C64.4585 14.0157 63.7148 13.7726 62.9249 13.7726C61.597 13.7726 60.5464 14.2169 59.7733 15.1055C58.9163 16.095 58.4877 17.545 58.4877 19.4565C58.4877 20.9992 58.8154 22.2734 59.4708 23.2794C60.2607 24.5203 61.4626 25.1405 63.0763 25.1405C63.7317 25.1405 64.4251 24.9101 65.1562 24.4488C65.8874 23.9878 66.4208 23.38 66.7572 22.6255L70.3121 24.3357C69.5388 25.7441 68.5134 26.8592 67.2362 27.6806C65.9587 28.5019 64.5721 28.9129 63.0763 28.9129C60.3194 28.9129 58.0925 27.9659 56.3949 26.0709C54.7981 24.2941 54 22.089 54 19.4565C54 16.8075 54.7562 14.6025 56.269 12.842C57.8825 10.9475 60.0339 10 62.7232 10C65.984 10 68.4881 11.5593 70.2364 14.678Z" fill="#060101"/>
<path fill-rule="evenodd" clip-rule="evenodd" d="M80.0941 22.8266V21.8962L77.4469 22.6507C76.1863 23.0027 75.5559 23.5812 75.5559 24.3861C75.5559 24.889 75.7113 25.2661 76.0224 25.5177C76.3333 25.7693 76.7914 25.8951 77.3966 25.8951C78.2034 25.8951 78.8544 25.6309 79.3503 25.1027C79.8459 24.5746 80.0941 23.8161 80.0941 22.8266ZM83.8759 18.5511V25.6183C83.8759 26.8759 83.9934 27.8064 84.2289 28.41H80.5984C80.4637 27.9912 80.3629 27.5297 80.2958 27.0266C79.9764 27.5297 79.3965 27.949 78.5563 28.2842C77.783 28.6026 77.0183 28.7622 76.262 28.7622C74.9339 28.7622 73.8668 28.4183 73.06 27.731C72.2027 27.0103 71.7744 26.0294 71.7744 24.7884C71.7744 23.2629 72.3877 22.1059 73.6146 21.3176C74.6567 20.6473 76.3376 20.1526 78.6571 19.8337L80.0941 19.6326V18.5261C80.0941 18.0399 79.9385 17.6794 79.6277 17.4446C79.3165 17.2099 78.8502 17.0924 78.2285 17.0924C77.5895 17.0924 77.1105 17.2268 76.7914 17.4949C76.472 17.7634 76.262 18.2242 76.1612 18.8781H72.3792C72.4632 16.0781 74.3036 14.678 77.9007 14.678C79.8672 14.678 81.3208 14.9465 82.2624 15.4828C83.3378 16.1033 83.8759 17.1262 83.8759 18.5511Z" fill="#060101"/>
<path fill-rule="evenodd" clip-rule="evenodd" d="M102.431 28.4099H106.364V16.187H102.431V28.4099Z" fill="#060101"/>
<path fill-rule="evenodd" clip-rule="evenodd" d="M116.071 17.6959C114.995 17.6959 114.18 18.082 113.625 18.8529C113.121 19.5571 112.869 20.5129 112.869 21.7201C112.869 22.9272 113.121 23.8829 113.625 24.5873C114.18 25.3587 114.995 25.7441 116.071 25.7441C117.146 25.7441 117.949 25.3963 118.478 24.7003C119.008 24.0049 119.272 22.961 119.272 21.5692C119.272 20.429 119.02 19.5155 118.516 18.8278C117.944 18.0732 117.129 17.6959 116.071 17.6959ZM116.071 14.678C118.205 14.678 119.928 15.2985 121.239 16.5391C122.55 17.78 123.205 19.5068 123.205 21.7201C123.205 23.9332 122.55 25.6603 121.239 26.9011C119.928 28.1419 118.205 28.7622 116.071 28.7622C113.936 28.7622 112.213 28.1419 110.902 26.9011C109.591 25.6603 108.936 23.9332 108.936 21.7201C108.936 19.5068 109.591 17.78 110.902 16.5391C112.213 15.2985 113.936 14.678 116.071 14.678Z" fill="#060101"/>
<path fill-rule="evenodd" clip-rule="evenodd" d="M129.433 21.7201C129.433 23.1119 129.66 24.1556 130.113 24.8513C130.567 25.5472 131.248 25.895 132.156 25.895C133.063 25.895 133.744 25.5093 134.198 24.738C134.652 23.967 134.878 22.8183 134.878 21.2924C134.878 20.2699 134.677 19.4148 134.273 18.7271C133.802 17.9393 133.113 17.545 132.206 17.545C131.281 17.545 130.575 17.9561 130.088 18.7774C129.651 19.5154 129.433 20.4963 129.433 21.7201ZM125.6 32.8364V15.0302H128.721L129.281 16.2625C129.701 15.7261 130.21 15.3279 130.807 15.0678C131.403 14.808 132.088 14.678 132.861 14.678C134.525 14.678 135.878 15.2399 136.921 16.3631C138.046 17.5701 138.61 19.2051 138.61 21.2673C138.61 23.7489 138.114 25.6183 137.122 26.8758C136.13 28.1332 134.718 28.762 132.887 28.762C132.248 28.762 131.647 28.6615 131.084 28.4603C130.521 28.259 130.004 27.9572 129.533 27.5549V32.8364H125.6Z" fill="#060101"/>
<path fill-rule="evenodd" clip-rule="evenodd" d="M143.972 21.2946L149.638 19.8443C149.442 19.1047 149.081 18.5511 148.493 18.0984C148.022 17.7298 147.45 17.545 146.778 17.545C146.139 17.545 145.48 17.7515 145.007 18.1866C144.556 18.6014 143.843 19.3026 143.972 21.2946ZM153.314 21.1721L144.255 23.4906C144.351 23.9045 144.589 24.7292 145.165 25.1656C145.733 25.5962 146.324 25.895 147.081 25.895C147.77 25.895 148.358 25.7024 148.846 25.3166C149.232 25.0146 149.736 24.4197 150.358 23.5309L153.308 25.065C151.98 27.5297 149.812 28.7622 146.803 28.7622C144.77 28.7622 143.156 28.125 141.963 26.8507C140.803 25.6434 140.223 24.0676 140.223 22.1224C140.223 19.7752 140.807 17.9475 141.975 16.6396C143.143 15.3319 144.752 14.678 146.803 14.678C149.089 14.678 150.815 15.4523 151.922 17.0421C152.842 18.3648 153.146 19.5904 153.314 21.1721Z" fill="#060101"/>
<path fill-rule="evenodd" clip-rule="evenodd" d="M87.5061 11.51V12.4605V28.4101H91.4392V12.4757V11.51V10.5032C90.0733 10.6093 88.75 10.948 87.5061 11.51Z" fill="#060101"/>
<path fill-rule="evenodd" clip-rule="evenodd" d="M94.9687 11.51V12.4605V28.4101H98.9016V12.4757V11.51V10.5032C97.5358 10.6093 96.2124 10.948 94.9687 11.51Z" fill="#060101"/>
<path fill-rule="evenodd" clip-rule="evenodd" d="M152.909 21.2757L143.82 23.6018L143.219 21.2631L152.308 18.937L152.909 21.2757Z" fill="#060101"/>
<path fill-rule="evenodd" clip-rule="evenodd" d="M11.9656 2.20166C11.9656 2.20166 11.7772 8.64588 17.6839 13.1321V25.8742C17.6839 25.8742 13.88 24.832 11.9649 23.1584L11.9656 2.20166Z" fill="black"/>
<path fill-rule="evenodd" clip-rule="evenodd" d="M19.1651 14.2654C19.1651 14.2654 21.017 15.6172 24.8836 16.4403V26.3021C24.8836 26.3021 21.7697 26.8521 19.1647 26.3359L19.1651 14.2654Z" fill="black"/>
<path fill-rule="evenodd" clip-rule="evenodd" d="M26.2626 16.5759C26.2626 16.5759 28.5544 16.9261 31.9811 16.0864V23.0933C31.9811 23.0933 29.6063 24.9954 26.2622 25.8741L26.2626 16.5759Z" fill="black"/>
<path fill-rule="evenodd" clip-rule="evenodd" d="M14.6192 2.92469C14.7032 3.16307 14.7925 3.39923 14.887 3.63286C15.0766 4.09973 15.2796 4.55957 15.5035 5.00762C15.9463 5.90594 16.4567 6.76441 17.0299 7.57046C17.6083 8.37208 18.2407 9.12959 18.9472 9.80431C19.6512 10.4808 20.417 11.0845 21.2337 11.6022C22.8697 12.636 24.7076 13.3055 26.6078 13.6444C28.5112 13.9829 30.4675 14.0074 32.4211 13.8677C31.4608 14.0732 30.4827 14.1938 29.4985 14.2458C28.5144 14.2889 27.5221 14.2659 26.5383 14.1326C24.5703 13.8856 22.6291 13.2242 20.9185 12.1427C20.0662 11.5989 19.2688 10.9613 18.5526 10.2378C17.8406 9.51051 17.1941 8.71506 16.644 7.85414C16.3686 7.42435 16.1071 6.98515 15.8749 6.5299C15.6422 6.07505 15.4277 5.61095 15.2346 5.13815C15.0466 4.66298 14.8737 4.18212 14.7295 3.69216C14.5866 3.20221 14.4609 2.70616 14.3845 2.20166C14.4548 2.44597 14.5339 2.68656 14.6192 2.92469Z" fill="black"/>
<mask id="mask0_0:1" style="mask-type:alpha" maskUnits="userSpaceOnUse" x="12" y="0" width="4" height="3">
<path d="M12.888 0H15.6876V2.81682H12.888V0Z" fill="white"/>
</mask>
<g mask="url(#mask0_0:1)">
<path fill-rule="evenodd" clip-rule="evenodd" d="M13.5964 -0.000244141L12.888 2.81663L15.6876 1.99648L13.5964 -0.000244141Z" fill="black"/>
</g>
<mask id="mask1_0:1" style="mask-type:alpha" maskUnits="userSpaceOnUse" x="0" y="28" width="44" height="5">
<path d="M0 28.6797H44V32.9253H0V28.6797Z" fill="white"/>
</mask>
<g mask="url(#mask1_0:1)">
<path fill-rule="evenodd" clip-rule="evenodd" d="M0 32.9253C0 32.9253 21.8018 23.3727 44 32.9253C44 32.9253 20.3031 28.648 0 32.9253Z" fill="black"/>
</g>
</svg>
