<svg width="96" height="96" viewBox="0 0 96 96" fill="none" xmlns="http://www.w3.org/2000/svg">
<path d="M83.9882 43.7551C86.8993 43.7551 88.1146 40.0776 85.7499 38.3825L49.7709 12.6496C48.7165 11.8901 47.283 11.8901 46.2286 12.6496L10.2497 38.3825C7.88498 40.0684 9.10029 43.7551 12.0208 43.7551H17.8524V78.399H11.0693C10.6548 78.399 10.3156 78.7325 10.3156 79.14V83.9568C10.3156 84.3644 10.6548 84.6979 11.0693 84.6979H84.9303C85.3448 84.6979 85.6839 84.3644 85.6839 83.9568V79.14C85.6839 78.7325 85.3448 78.399 84.9303 78.399H78.1471V43.7551H83.9882ZM47.9998 19.1801L73.5402 37.4469H22.4593L47.9998 19.1801ZM24.6356 43.7551H35.6582V78.399H24.6356V43.7551ZM42.4414 43.7551H53.464V78.399H42.4414V43.7551ZM71.364 78.399H60.2471V43.7551H71.364V78.399Z" fill="black"/>
</svg>
