<svg width="70" height="71" viewBox="0 0 70 71" fill="none" xmlns="http://www.w3.org/2000/svg">
<path d="M35 70.3726C54.33 70.3726 70 54.7846 70 35.5558C70 16.327 54.33 0.739014 35 0.739014C15.67 0.739014 0 16.327 0 35.5558C0 54.7846 15.67 70.3726 35 70.3726Z" fill="#F6F1ED"/>
<path d="M25.8225 35.4242C25.8715 34.5468 25.308 33.7669 24.475 33.5476C22.3435 32.987 20.8735 31.086 20.8735 28.9413C20.8735 26.8453 22.2455 25.0175 24.3035 24.3838C25.2835 24.0913 25.8225 23.0677 25.5285 22.0928C25.2345 21.118 24.2055 20.5818 23.2255 20.8743C19.624 21.971 17.1985 25.2124 17.1985 28.9413C17.1985 31.1591 18.0805 33.2307 19.575 34.7662C14.822 37.0815 11.6125 41.9802 11.6125 47.4882C11.6125 48.4875 12.4455 49.3161 13.45 49.3161C14.4545 49.3161 15.2875 48.4875 15.2875 47.4882C15.2875 42.2727 19.134 37.837 24.23 37.1302C25.112 37.0084 25.7735 36.3016 25.8225 35.4242ZM51.67 34.7662C53.1645 33.2307 54.0465 31.1591 54.0465 28.9413C54.0465 25.2368 51.621 21.9954 48.0195 20.8743C47.0395 20.5818 46.0105 21.118 45.7165 22.0928C45.4225 23.0677 45.9615 24.0913 46.9415 24.3838C48.9995 25.0175 50.3715 26.8453 50.3715 28.9413C50.3715 31.086 48.877 32.987 46.77 33.5476C45.937 33.7669 45.349 34.5712 45.4225 35.4242C45.496 36.2772 46.133 37.0084 47.015 37.1302C52.111 37.837 55.9575 42.297 55.9575 47.4882C55.9575 48.4875 56.7905 49.3161 57.795 49.3161C58.7995 49.3161 59.6325 48.4875 59.6325 47.4882C59.6325 41.9802 56.423 37.0815 51.67 34.7662ZM42.017 35.3023C44.2465 33.4745 45.6675 30.7204 45.6675 27.6252C45.6675 22.1172 41.1105 17.6328 35.5 17.6328C29.8895 17.6328 25.3325 22.1172 25.3325 27.6252C25.3325 30.6961 26.7535 33.4501 28.983 35.3023C22.956 37.8857 18.7175 43.9056 18.7175 50.9003C18.7175 51.8995 19.5505 52.7281 20.555 52.7281C21.5595 52.7281 22.3925 51.8995 22.3925 50.9003C22.3925 43.5644 28.2725 37.6177 35.5 37.6177C42.7275 37.6177 48.6075 43.5644 48.6075 50.9003C48.6075 51.8995 49.4405 52.7281 50.445 52.7281C51.4495 52.7281 52.2825 51.8995 52.2825 50.9003C52.2825 43.8812 48.044 37.8614 42.017 35.3023ZM29.0075 27.6252C29.0075 24.1401 31.923 21.2886 35.5 21.2886C39.077 21.2886 41.9925 24.1401 41.9925 27.6252C41.9925 31.1104 39.077 33.9619 35.5 33.9619C31.923 33.9619 29.0075 31.1104 29.0075 27.6252Z" fill="black"/>
</svg>
